# AST/ASF file generated using VICON BodyLanguage
# -----------------------------------------------
:version 1.10
:name VICON
:units
  mass 1.0
  length 0.45
  angle deg
:documentation
   .ast/.asf automatically generated from VICON data using
   VICON BodyBuilder and BodyLanguage model FoxedUp or BRILLIANT.MOD
:root
   order TX TY TZ RX RY RZ
   axis XYZ
   position 0 0 0  
   orientation 0 0 0 
:bonedata
  begin
     id 1 
     name lhipjoint
     direction 0.588788 -0.725889 0.355548 
     length 2.37778 
     axis 0 0 0  XYZ
  end
  begin
     id 2 
     name lfemur
     direction 0.34202 -0.939693 0  
     length 6.86393  
     axis 0 0 20  XYZ
    dof rx ry rz
    limits (-160.0 20.0)
           (-70.0 70.0)
           (-60.0 70.0)
  end
  begin
     id 3 
     name ltibia
     direction 0.34202 -0.939693 0   
     length 7.32851   
     axis 0 0 20   XYZ
    dof rx
    limits (-10.0 170.0)
  end
  begin
     id 4 
     name lfoot
     direction 0.0626533 -0.172138 0.983078   
     length 1.98929   
     axis -90 7.62852e-016 20   XYZ
    dof rx rz
    limits (-45.0 90.0)
           (-70.0 20.0)
  end
  begin
     id 5 
     name ltoes
     direction 1.53647e-011 -4.21734e-011 1   
     length 1.00479   
     axis -90 7.62852e-016 20   XYZ
    dof rx
    limits (-90.0 20.0)
  end
  begin
     id 6 
     name rhipjoint
     direction -0.59141 -0.724168 0.354705   
     length 2.38343  
     axis 0 0 0  XYZ 
  end
  begin
     id 7 
     name rfemur
     direction -0.34202 -0.939693 0   
     length 6.95589   
     axis 0 0 -20   XYZ
    dof rx ry rz
    limits (-160.0 20.0)
           (-70.0 70.0)
           (-70.0 60.0)
  end
  begin
     id 8 
     name rtibia
     direction -0.34202 -0.939693 0   
     length 7.32327   
     axis 0 0 -20   XYZ
    dof rx
    limits (-10.0 170.0)
 end
 begin
     id 9 
     name rfoot
     direction -0.0660461 -0.18146 0.981178   
     length 1.85272  
     axis -90 -7.62852e-016 -20   XYZ
    dof rx rz
    limits (-45.0 90.0)
           (-20.0 70.0)
  end
  begin
     id 10 
     name rtoes
     direction -1.53586e-011 -4.21988e-011 1   
     length 0.93746   
     axis -90 -7.62852e-016 -20   XYZ
    dof rx
    limits (-90.0 20.0)
  end
  begin
     id 11 
     name lowerback
     direction -0.0107982 0.991059 0.13299   
     length 1.98691   
     axis 0 0 0   XYZ
    dof rx ry rz
    limits (-20.0 45.0)
           (-30.0 30.0)
           (-30.0 30.0)
  end
  begin
     id 12 
     name upperback
     direction 0.0076296 0.999916 0.0104576   
     length 1.99501   
     axis 0 0 0   XYZ
    dof rx ry rz
    limits (-20.0 45.0)
           (-30.0 30.0)
           (-30.0 30.0)
  end
  begin
     id 13 
     name thorax
     direction 0.01176 0.998615 -0.0512909   
     length 2.03144   
     axis 0 0 0   XYZ
    dof rx ry rz
    limits (-20.0 45.0)
           (-30.0 30.0)
           (-30.0 30.0)
  end
  begin
     id 14 
     name lowerneck
     direction -0.0171909 0.999644 0.0204011   
     length 1.71818   
     axis 0 0 0   XYZ
    dof rx ry rz
    limits (-20.0 45.0)
           (-30.0 30.0)
           (-30.0 30.0)
  end
  begin
     id 15 
     name upperneck
     direction 0.0250902 0.997482 -0.0663316   
     length 1.66199   
     axis 0 0 0   XYZ
    dof rx ry rz
    limits (-20.0 45.0)
           (-30.0 30.0)
           (-30.0 30.0)
  end
  begin
     id 16
     name head
     direction 0.00881535 0.99956 -0.0283365  
     length 1.81545  
     axis 0 0 0   XYZ
    dof rx ry rz
    limits (-20.0 45.0)
           (-30.0 30.0)
           (-30.0 30.0)
  end
  begin
     id 17 
     name lclavicle
     direction 0.840411 0.486876 -0.238035  
     length 3.30409  
     axis 0 0 0   XYZ
    dof ry rz
    limits (-20.0 10.0)
           (0.0 20.0)
  end
  begin
     id 18 
     name lhumerus
     direction 1 -4.48977e-011 -5.16239e-027   
     length 4.62672   
     axis 180 -30 -90   XYZ
    dof rx ry rz
    limits (-60.0 90.0)
           (-90.0 90.0)
           (-90.0 90.0)
  end
  begin
     id 19
     name lradius
     direction 1 -4.48977e-011 -8.71171e-027   
     length 3.11018   
     axis 180 -30 -90   XYZ
    dof rx
    limits (-10.0 170.0)
  end
  begin
     id 20
     name lwrist
     direction 1 -4.48912e-011 -1.03764e-026   
     length 1.55509   
     axis 9.09556e-015 90 90   XYZ
    dof ry
    limits (-180.0 0.0)
 end
  begin
     id 21 
     name lhand
     direction 1 -4.49072e-011 -2.07528e-026   
     length 0.743834   
     axis 1.3242e-014 90 90   XYZ
    dof rx rz
    limits (-90.0 90.0)
           (-45.0 45.0)
  end
  begin
     id 22 
     name lfingers
     direction 1 -4.48909e-011 -4.15056e-026   
     length 0.599698   
     axis 2.64841e-014 90 90   XYZ
    dof rx
    limits (0.0 90.0)
  end
  begin
     id 23
     name lthumb
     direction 0.707107 -6.35013e-011 0.707107   
     length 0.86105   
     axis -90 45 2.85299e-015   XYZ
    dof rx rz
    limits (-45.0 45.0)
           (-45.0 45.0)
  end
  begin
     id 24 
     name rclavicle
     direction -0.835208 0.500237 -0.228452   
     length 3.2716  
     axis 0 0 0   XYZ 
    dof ry rz
    limits (-10.0 20.0)
           (-20.0 0.0)
  end
  begin
     id 25 
     name rhumerus
     direction -1 -4.48978e-011 -5.1953e-028  
     length 4.55919   
     axis 180 30 90   XYZ
    dof rx ry rz
    limits (-90.0 60.0)
           (-90.0 90.0)
           (-90.0 90.0)
  end
  begin
     id 26 
     name rradius
     direction -1 -4.48961e-011 -5.99546e-027   
     length 3.22748   
     axis 180 30 90   XYZ
    dof rx
    limits (-10.0 170.0)
  end
  begin
     id 27 
     name rwrist
     direction -1 -4.48986e-011 -1.03764e-026   
     length 1.61374   
     axis 9.09556e-015 -90 -90   XYZ
    dof ry
    limits (-180.0 0.0)
  end
  begin
     id 28
     name rhand
     direction -1 -4.4899e-011 -2.07528e-026   
     length 0.700882   
     axis 1.3242e-014 -90 -90   XYZ
    dof rx rz
    limits (-90.0 90.0)
           (-45.0 45.0)
  end
  begin
     id 29
     name rfingers
     direction -1 -4.48991e-011 -4.15056e-026   
     length 0.565069   
     axis 2.64841e-014 -90 -90   XYZ
    dof rx
    limits (0.0 90.0)
  end
  begin
     id 30
     name rthumb
     direction -0.707107 -6.34804e-011 0.707107   
     length 0.811329   
     axis -90 -45 -2.85299e-015   XYZ
    dof rx rz
    limits (-45.0 45.0)
           (-45.0 45.0)
  end
:hierarchy
  begin
    root lhipjoint rhipjoint lowerback
    lhipjoint lfemur
    lfemur ltibia
    ltibia lfoot
    lfoot ltoes
    rhipjoint rfemur
    rfemur rtibia
    rtibia rfoot
    rfoot rtoes
    lowerback upperback
    upperback thorax
    thorax lowerneck lclavicle rclavicle
    lowerneck upperneck
    upperneck head
    lclavicle lhumerus
    lhumerus lradius
    lradius lwrist
    lwrist lhand lthumb
    lhand lfingers
    rclavicle rhumerus
    rhumerus rradius
    rradius rwrist
    rwrist rhand rthumb
    rhand rfingers
  end

#!OML:ASF F:\VICON\USERDATA\INSTALL\SteveWalk\SteveWalk.ASF
:FULLY-SPECIFIED
:DEGREES
1
root -0.709443 15.887 -44.6927 18.2788 3.52914 -0.426534
lowerback -16.3907 -2.616 3.72989
upperback -3.90209 -4.25219 2.98928
thorax 4.96383 -2.06176 0.194839
lowerneck -5.4666 -0.558289 1.68498
upperneck 4.37854 -0.612035 -4.84189
head 2.32444 -0.420075 -1.87273
rclavicle -1.52567e-014 -2.06736e-014
rhumerus -88.101 -39.7586 -1.54066
rradius 11.9396
rwrist 48.1978
rhand -16.0327 -34.2609
rfingers 7.12502
rthumb 10.1686 -63.9952
lclavicle -1.52567e-014 -2.06736e-014
lhumerus -20.457 -0.236239 80.8642
lradius 56.5565
lwrist 14.6254
lhand -23.8594 -17.6635
lfingers 7.12502
lthumb 2.61317 12.3003
rfemur -53.0816 -0.273186 22.5262
rtibia 40.364
rfoot -7.46818 5.5304
rtoes -15.5727
lfemur -7.09393 -1.31025 -18.8766
ltibia 46.0974
lfoot 14.5557 -19.1288
ltoes -30.4961
2
root -0.719984 15.9087 -44.466 18.1084 3.39402 -0.78013
lowerback -15.3583 -2.44977 3.9214
upperback -4.34031 -3.98966 3.14607
thorax 3.94595 -1.956 0.365058
lowerneck -5.62461 -0.650747 1.64299
upperneck 5.01845 -0.7039 -4.94422
head 2.564 -0.478033 -1.91434
rclavicle 1.63997e-015 1.35174e-014
rhumerus -86.1191 -39.6129 -4.66755
rradius 12.3005
rwrist 44.3334
rhand -15.3139 -35.7314
rfingers 7.12502
rthumb 10.862 -65.4305
lclavicle 1.63997e-015 1.35174e-014
lhumerus -21.6943 -0.328295 81.268
lradius 55.8681
lwrist 14.6338
lhand -23.7222 -17.3888
lfingers 7.12502
lthumb 2.7456 12.5733
rfemur -52.2665 0.0357729 23.0571
rtibia 40.7552
rfoot -8.17088 4.96911
rtoes -15.6555
lfemur -8.76355 -1.19878 -18.4288
ltibia 49.3503
lfoot 17.8388 -18.0519
ltoes -26.3482
3
root -0.722559 15.9387 -44.2263 17.9269 3.71636 -0.885336
lowerback -15.1591 -2.41697 4.10837
upperback -4.41349 -3.95622 3.11937
thorax 3.74682 -1.94313 0.250358
lowerneck -5.37263 -0.716151 1.62791
upperneck 5.02974 -0.797081 -4.80766
head 2.5167 -0.517443 -1.86665
rclavicle 6.21202e-015 -2.54444e-014
rhumerus -85.1574 -40.0154 -6.39326
rradius 12.3346
rwrist 42.8131
rhand -15.343 -35.7373
rfingers 7.12502
rthumb 10.8339 -65.4378
lclavicle 6.21202e-015 -2.54444e-014
lhumerus -22.4335 -0.351403 81.5991
lradius 54.4935
lwrist 13.7059
lhand -23.3457 -18.1337
lfingers 7.12502
lthumb 3.10926 11.8233
rfemur -51.3273 -0.363328 23.4852
rtibia 41.2167
rfoot -9.22749 4.71449
rtoes -15.7916
lfemur -10.2666 -1.25508 -18.0744
ltibia 52.2104
lfoot 20.4026 -14.4419
ltoes -12.2972
4
root -0.72408 15.966 -43.9898 17.8456 4.04997 -0.78858
lowerback -15.3447 -2.41271 4.0503
upperback -4.34451 -3.95178 3.03901
thorax 3.91793 -1.93654 0.188598
lowerneck -5.12485 -0.71613 1.68645
upperneck 4.89396 -0.816584 -4.60995
head 2.42403 -0.515713 -1.80716
rclavicle 1.05356e-014 3.02153e-014
rhumerus -86.4505 -41.0053 -4.45951
rradius 12.0097
rwrist 44.6761
rhand -15.6392 -34.2527
rfingers 7.12502
rthumb 10.5482 -63.968
lclavicle 1.05356e-014 3.02153e-014
lhumerus -23.0006 -0.165692 81.9641
lradius 53.567
lwrist 13.424
lhand -22.463 -17.2346
lfingers 7.12502
lthumb 3.96171 12.7083
rfemur -50.4245 -0.896665 23.6884
rtibia 41.5838
rfoot -10.3749 4.51832
rtoes -16.6028
lfemur -11.8356 -1.18827 -17.9685
ltibia 54.963
lfoot 20.4808 -12.7596
ltoes -13.789
5
root -0.727737 15.994 -43.7569 17.7785 4.11985 -1.02108
lowerback -14.5675 -2.25407 4.19606
upperback -4.87016 -3.69104 3.1167
thorax 2.94618 -1.83128 0.283944
lowerneck -4.99175 -0.785199 1.70665
upperneck 5.50656 -0.890207 -4.59515
head 2.60117 -0.555346 -1.81634
rclavicle 3.03644e-014 -2.3059e-014
rhumerus -90.751 -41.4368 2.23134
rradius 11.518
rwrist 49.4725
rhand -16.1155 -30.6319
rfingers 7.12502
rthumb 10.0887 -60.37
lclavicle 3.03644e-014 -2.3059e-014
lhumerus -24.3685 0.0362378 82.4721
lradius 52.6276
lwrist 13.25
lhand -21.4676 -16.4582
lfingers 7.12502
lthumb 4.92284 13.4646
rfemur -49.516 -0.967007 24.1124
rtibia 41.878
rfoot -11.5715 3.97772
rtoes -18.6708
lfemur -13.4158 -0.795188 -17.6226
ltibia 57.5868
lfoot 19.2308 -11.9906
ltoes -16.8246
6
root -0.731298 16.0258 -43.5293 17.6958 4.12061 -1.38606
lowerback -16.1257 -2.07842 4.36354
upperback -3.82989 -3.64628 3.21386
thorax 4.88298 -1.75779 0.207307
lowerneck -5.65042 -0.848874 1.74759
upperneck 5.21928 -0.991757 -4.59659
head 2.6243 -0.609732 -1.83258
rclavicle -1.50082e-014 4.05521e-014
rhumerus -85.5635 -43.7937 -5.73618
rradius 11.9902
rwrist 44.6989
rhand -15.2251 -35.3332
rfingers 7.12502
rthumb 10.9477 -65.0278
lclavicle -1.50082e-014 4.05521e-014
lhumerus -23.3344 0.578288 82.8249
lradius 51.115
lwrist 13.0227
lhand -20.9106 -16.092
lfingers 7.12502
lthumb 5.4607 13.8177
rfemur -48.576 -0.763089 24.5447
rtibia 42.0954
rfoot -12.5145 3.56355
rtoes -18.4388
lfemur -15.0844 -0.133182 -17.1573
ltibia 60.1118
lfoot 16.6523 -11.0597
ltoes -19.8868
7
root -0.734079 16.0522 -43.3097 17.7032 4.14386 -1.58833
lowerback -15.3373 -1.90168 4.47657
upperback -4.37404 -3.35003 3.2679
thorax 3.88392 -1.63739 0.29985
lowerneck -5.7331 -0.975998 1.92267
upperneck 6.03593 -1.13355 -4.84378
head 2.91091 -0.692435 -1.96727
rclavicle 1.33186e-014 -3.02153e-014
rhumerus -79.573 -42.9196 -14.9169
rradius 12.5177
rwrist 39.6442
rhand -14.9099 -37.7813
rfingers 7.12502
rthumb 11.2516 -67.4595
lclavicle 1.33186e-014 -3.02153e-014
lhumerus -24.5782 0.712536 83.3347
lradius 49.6002
lwrist 12.3533
lhand -20.7658 -15.9016
lfingers 7.12502
lthumb 5.60048 14.0044
rfemur -47.7294 -0.661103 24.798
rtibia 42.2167
rfoot -13.2602 3.39222
rtoes -16.7469
lfemur -16.8952 0.677416 -16.879
ltibia 62.5356
lfoot 14.1535 -10.1695
ltoes -16.271
8
root -0.738627 16.0768 -43.0942 17.7323 4.24472 -1.60356
lowerback -15.0801 -1.82257 4.30226
upperback -4.65063 -3.18903 3.32439
thorax 3.47015 -1.5685 0.500572
lowerneck -5.48158 -1.06304 1.93775
upperneck 6.33692 -1.22793 -5.00609
head 2.96202 -0.744399 -2.02951
rclavicle -1.84373e-014 -1.51076e-014
rhumerus -75.3975 -42.3934 -21.07
rradius 12.8996
rwrist 36.4468
rhand -14.5983 -37.6856
rfingers 7.12502
rthumb 11.5522 -67.3472
lclavicle -1.84373e-014 -1.51076e-014
lhumerus -25.4291 1.073 83.8364
lradius 47.8191
lwrist 11.2352
lhand -20.8717 -16.0937
lfingers 7.12502
lthumb 5.49818 13.815
rfemur -46.8861 -0.722265 24.897
rtibia 42.2894
rfoot -14.1077 3.22727
rtoes -15.6
lfemur -18.7323 1.27896 -16.8401
ltibia 64.7819
lfoot 11.3785 -9.05768
ltoes -15.1189
9
root -0.742844 16.1073 -42.8795 17.6956 4.3974 -1.69356
lowerback -15.573 -1.79964 4.2493
upperback -4.42594 -3.19813 3.38541
thorax 3.9793 -1.56085 0.570536
lowerneck -5.21204 -1.09496 1.73697
upperneck 6.20388 -1.26735 -4.86194
head 2.86411 -0.759524 -1.93965
rclavicle 1.20762e-014 -1.66979e-014
rhumerus -72.6316 -43.1618 -24.4845
rradius 13.0462
rwrist 35.2821
rhand -14.4224 -36.9771
rfingers 7.12502
rthumb 11.7218 -66.6291
lclavicle 1.20762e-014 -1.66979e-014
lhumerus -25.7379 1.64785 84.1236
lradius 46.088
lwrist 10.2841
lhand -20.9318 -16.6079
lfingers 7.12502
lthumb 5.44024 13.3023
rfemur -45.8913 -0.782728 25.0759
rtibia 42.2801
rfoot -14.9517 2.98593
rtoes -15.5022
lfemur -20.5547 1.74469 -16.7311
ltibia 66.8131
lfoot 8.93818 -7.82274
ltoes -16.2306
10
root -0.744931 16.1408 -42.6663 17.7221 4.28683 -1.60337
lowerback -16.2263 -1.73947 3.83824
upperback -4.15063 -3.11671 3.49918
thorax 4.65372 -1.50863 0.90936
lowerneck -5.13156 -1.15526 1.42754
upperneck 6.23483 -1.32757 -4.78239
head 2.85751 -0.793561 -1.85914
rclavicle -5.06901e-015 2.22639e-014
rhumerus -69.5333 -43.8739 -27.8894
rradius 13.114
rwrist 34.1349
rhand -14.4811 -36.5575
rfingers 7.12502
rthumb 11.6651 -66.2128
lclavicle -5.06901e-015 2.22639e-014
lhumerus -25.8773 2.41268 84.5385
lradius 44.252
lwrist 9.51692
lhand -20.8232 -16.9485
lfingers 7.12502
lthumb 5.54506 12.9589
rfemur -44.9425 -0.740429 25.0105
rtibia 42.1826
rfoot -15.7369 2.91057
rtoes -14.791
lfemur -22.3558 2.25561 -16.9259
ltibia 68.5148
lfoot 7.07668 -6.54719
ltoes -15.9281
11
root -0.749748 16.1769 -42.4554 17.8154 3.96886 -1.4975
lowerback -15.9419 -1.54548 3.61888
upperback -4.4473 -2.7855 3.36979
thorax 4.19261 -1.356 0.9733
lowerneck -5.20773 -1.17469 1.43169
upperneck 6.97232 -1.33356 -4.71047
head 3.12292 -0.80162 -1.85126
rclavicle 1.02374e-014 -1.11319e-014
rhumerus -65.3911 -42.6407 -33.9048
rradius 13.6031
rwrist 30.2624
rhand -14.9582 -37.0128
rfingers 7.12502
rthumb 11.205 -66.6935
lclavicle 1.02374e-014 -1.11319e-014
lhumerus -26.6831 2.81006 84.6753
lradius 42.401
lwrist 8.78488
lhand -20.7967 -16.2831
lfingers 7.12502
lthumb 5.57068 13.6236
rfemur -44.0194 -0.504569 24.8879
rtibia 41.9696
rfoot -16.5735 2.72928
rtoes -15.0861
lfemur -24.1882 2.89996 -17.2154
ltibia 69.873
lfoot 5.53432 -5.40068
ltoes -14.9785
12
root -0.754024 16.2149 -42.245 17.8056 3.76717 -1.27172
lowerback -15.5359 -1.36632 3.2289
upperback -4.68918 -2.44415 3.18216
thorax 3.72927 -1.19659 1.07265
lowerneck -5.42642 -1.24135 1.64504
upperneck 7.69509 -1.41621 -4.72473
head 3.41064 -0.845641 -1.91593
rclavicle 1.45361e-014 0
rhumerus -62.0228 -41.574 -38.8895
rradius 14.0893
rwrist 27.0579
rhand -15.3851 -37.2283
rfingers 7.12502
rthumb 10.7933 -66.931
lclavicle 1.45361e-014 0
lhumerus -27.5834 3.08129 84.874
lradius 40.5749
lwrist 7.58248
lhand -21.3364 -15.522
lfingers 7.12502
lthumb 5.0495 14.3978
rfemur -42.9458 -0.45717 24.674
rtibia 41.6854
rfoot -17.3966 2.47169
rtoes -15.4415
lfemur -25.8306 3.43265 -17.6346
ltibia 70.903
lfoot 4.1167 -4.29784
ltoes -15.6457
13
root -0.748862 16.2527 -42.0302 17.6569 3.80742 -1.04136
lowerback -16.0218 -1.31257 2.96938
upperback -4.31928 -2.36667 3.0254
thorax 4.38607 -1.1493 1.05171
lowerneck -5.54147 -1.34109 1.7208
upperneck 7.82458 -1.5556 -4.69415
head 3.47246 -0.913328 -1.93019
rclavicle 1.76918e-014 -1.59028e-015
rhumerus -59.4774 -42.5619 -41.3335
rradius 13.9173
rwrist 27.0195
rhand -15.6208 -36.3392
rfingers 7.12502
rthumb 10.5659 -66.0536
lclavicle 1.76918e-014 -1.59028e-015
lhumerus -27.6374 3.66567 84.9547
lradius 38.2998
lwrist 6.05341
lhand -21.8317 -15.5069
lfingers 7.12502
lthumb 4.5713 14.4238
rfemur -41.6573 -0.705929 24.504
rtibia 41.3507
rfoot -18.141 2.20181
rtoes -16.3827
lfemur -27.2664 3.65871 -18.0643
ltibia 71.6819
lfoot 2.83363 -3.35173
ltoes -16.1855
